<svg xmlns="http://www.w3.org/2000/svg" xml:space="preserve" id="Layer_1" x="0" y="0" style="enable-background:new 0 0 288 288" version="1.1" viewBox="0 0 288 288"><style>.st2{fill:#fff}</style><switch><g><linearGradient id="SVGID_1_" x1="144" x2="144" y1="20.668" y2="260.674" gradientUnits="userSpaceOnUse"><stop offset="0" style="stop-color:red"/><stop offset="1" style="stop-color:#842826;stop-opacity:0"/></linearGradient><path d="M230.8 169.5c1.2-5.9 1.8-11.7 1.8-17.1 0-37.2-28-82.3-56.3-111.2.7-1.4 1.1-2.9 1.1-4.5 0-5.4-4.4-9.9-9.9-9.9-1.9 0-3.7.6-5.3 1.5C156 23.3 148 18 142.3 18c-1.5 0-3.1.4-4.9 1-4.6-.5-35-3-48.2 11.2-.7.7-.9 1.7-.5 2.7.3.9 1.2 1.5 2.1 1.6 8.5.8 16.9 2.7 20 4.2-2.2 2.1-4.3 4.3-6.3 6.4-38.7 41.7-52.4 82.7-52.4 107.2 0 6.9 1 14.1 2.7 21.3-2.4 1.8-3.9 4.6-3.9 7.9 0 5.4 4.4 9.8 9.7 9.9C68.2 210 80 227.5 92.2 240c-6.2.8-11.2 6.4-11.2 13.1v3.5c0 7.4 6 13.4 13.4 13.4h96.1c7.4 0 13.4-6 13.4-13.4v-3.5c0-6.7-5-12.3-11.4-13.2 3.9-4 7.7-8.5 11.4-13.4 1.2.6 2.6.9 4 .9 5.4 0 9.9-4.4 9.9-9.9 0-2.8-1.2-5.4-3.2-7.2 4.2-7.3 7.8-14.7 10.6-22 .5.1 1.1.2 1.7.2 5.4 0 9.9-4.4 9.9-9.9.1-4.1-2.4-7.6-6-9.1zM174.9 43.3zM161.5 29c-.7.6-1.4 1.3-1.9 2 .6-.8 1.2-1.4 1.9-2zm-99 162.2h-.3.3zm140.3 34.7z" style="fill:url(#SVGID_1_)"/><g style="opacity:.9"><path d="M165.3 231.7h-45.7c-.9 0-1.7-.8-1.7-1.7 0-.9.8-1.7 1.7-1.7h45.7c.9 0 1.7.8 1.7 1.7.1 1-.7 1.7-1.7 1.7zM142.5 68.4c-41.5 0-75.2 33.7-75.2 75.2 0 10.3 2.1 20.3 6.1 29.7.3.6.8 1.1 1.5 1.4l27.5 10.2v20.8c0 .9.5 1.7 1.2 2.2 11.7 7.1 25.1 10.8 38.8 10.8 13.7 0 27.1-3.7 38.8-10.8.8-.5 1.2-1.3 1.2-2.2V185l27.5-10.2c.7-.2 1.2-.7 1.5-1.4 4.1-9.4 6.1-19.4 6.1-29.7.2-41.6-33.5-75.3-75-75.3zm64.8 101.9-28.2 10.5c-1 .4-1.7 1.3-1.7 2.4v21.2c-3.7 2.1-7.7 3.9-11.7 5.3V197c0-1.4-1.1-2.6-2.6-2.6-1.4 0-2.6 1.1-2.6 2.6v14.2c-3 .8-6 1.4-9.1 1.8v-8.7c0-1.4-1.1-2.6-2.6-2.6-1.4 0-2.6 1.1-2.6 2.6v9.2c-1.3.1-2.6.1-3.9.1-1.7 0-3.5-.1-5.2-.2v-9.1c0-1.4-1.1-2.6-2.6-2.6-1.4 0-2.6 1.1-2.6 2.6v8.5c-3.1-.5-6.1-1.1-9.1-2V197c0-1.4-1.1-2.6-2.6-2.6-1.4 0-2.6 1.1-2.6 2.6v12.1c-3.6-1.3-7-2.9-10.3-4.8v-21.2c0-1.1-.7-2-1.7-2.4l-28.2-10.5c-3.5-8.5-5.3-17.5-5.3-26.7 0-25.6 13.8-48 34.3-60.2l6.9 6.5-4.7 12.5c-.4 1-.1 2.1.7 2.8l12.4 11c.5.4 1.1.7 1.7.7.7 0 1.4-.3 1.9-.9.9-1.1.9-2.7-.2-3.6l-11-9.9 4.7-12.5c.4-1 .1-2-.6-2.8l-6.9-6.6c9.3-4.6 19.9-7.2 31-7.2 38.6 0 70 31.4 70 70 .3 9.5-1.5 18.5-5 27z" class="st2"/><path d="M142.5 159c-6.4 0-11.6 5.2-11.6 11.6 0 3.6 1.7 7 4.5 9.2v9.2c0 1.4 1.1 2.6 2.6 2.6h9.1c1.4 0 2.6-1.1 2.6-2.6v-9.2c2.8-2.2 4.5-5.6 4.5-9.2-.1-6.4-5.3-11.6-11.7-11.6zm3.3 17.2c-.8.5-1.3 1.3-1.3 2.2v8h-3.9v-8c0-.9-.5-1.8-1.3-2.2-2-1.2-3.3-3.3-3.3-5.6 0-3.6 2.9-6.5 6.5-6.5s6.5 2.9 6.5 6.5c0 2.3-1.2 4.4-3.2 5.6zM127 133.9c-3.7-3.7-9.8-5.4-18.6-5.3-21.3.2-22.9 7.7-22.9 18.1 0 10.4 10.5 19.1 23 19.1 12.4 0 22.9-8.8 22.9-19.1 0-3.6-.4-8.9-4.4-12.8zm-18.5 26.8c-9.5 0-17.9-6.5-17.9-14 0-8 0-12.8 17.9-13h.7c6.9 0 11.7 1.3 14.3 3.8 2 2 2.9 4.8 2.9 9.1-.1 7.5-8.4 14.1-17.9 14.1zM176.4 128.6c-8.8-.1-14.9 1.6-18.6 5.3-3.9 3.9-4.4 9.2-4.4 12.8 0 10.4 10.5 19.1 22.9 19.1 12.5 0 23-8.8 23-19.1.1-10.5-1.6-17.9-22.9-18.1zm-.1 32.1c-9.5 0-17.8-6.5-17.8-14 0-4.4.9-7.2 2.9-9.1 2.6-2.5 7.4-3.8 14.3-3.8h.7c17.9.2 17.9 5 17.9 13 0 7.3-8.4 13.9-18 13.9zM117.7 253.9l-.4-1.1c-.1-.2-.1-.4-.2-.5-.1-.1-.2-.2-.4-.2h-.2l-3.6 1.5.3-3.7v-.2c0-.2-.1-.4-.2-.5-.1-.1-.3-.1-.7-.1h-1.1c-.3 0-.5 0-.7.1-.1.1-.2.2-.2.5l.3 3.9-3.4-1.5c-.1 0-.1 0-.2-.1-.2 0-.4-.1-.6.2-.1.1-.2.3-.2.5l-.4 1.1s0 .1-.1.2c-.1.2-.1.2-.1.3 0 .1 0 .3.2.4.1.1.3.1.4.2l3.6.8-2.4 2.8c-.1.1-.2.2-.2.3-.1.1-.1.2-.1.3 0 .1.1.3.2.4l.3.3.9.7c.1.1.2.2.3.2.3.1.4.1.6 0l.3-.3 1.9-3.2 1.9 3.2c.1.1.2.2.2.3.1.1.2.1.3.1.1 0 .2 0 .3-.1.1 0 .2-.1.3-.2l1-.7.3-.3c.1-.1.2-.2.2-.3 0-.1 0-.2-.1-.3 0-.1-.1-.2-.2-.2l-2.4-2.8 3.6-.8c.2 0 .3-.1.4-.2.2-.1.2-.3.2-.4v-.2c.1-.2.1-.3.1-.4zM138.2 253.9l-.4-1.1c-.1-.2-.1-.4-.2-.5-.1-.1-.2-.2-.4-.2h-.2c-.1 0-.1 0-.2.1l-3.4 1.5.3-3.7v-.2c0-.2-.1-.4-.2-.5-.1-.1-.3-.1-.7-.1h-1.1c-.3 0-.5 0-.7.1-.1.1-.2.2-.2.5l.3 3.9-3.4-1.5c-.1 0-.1 0-.2-.1-.2 0-.4-.1-.6.2-.1.1-.1.3-.2.5l-.4 1.1s0 .1-.1.2c-.1.2-.1.2-.1.3 0 .1 0 .3.2.4.1.1.3.1.4.2l3.6.8-2.4 2.8c-.1.1-.2.2-.2.3-.1.1-.1.2-.1.3 0 .1.1.3.2.4l.3.3.9.7c.1.1.2.2.3.2.3.1.4.1.6 0l.3-.3 1.9-3.2 1.9 3.2c.1.1.2.2.2.3.1.1.2.1.3.1.1 0 .2 0 .3-.1.1 0 .2-.1.3-.2l1-.7.3-.3c.1-.1.2-.2.2-.3 0-.1 0-.2-.1-.3 0-.1-.1-.2-.2-.3l-2.4-2.8 3.6-.8c.2 0 .3-.1.4-.2.2-.1.2-.3.2-.4v-.2c.1-.2.1-.3.1-.4zM158.7 253.9l-.4-1.1c-.1-.2-.1-.4-.2-.5-.1-.1-.2-.2-.4-.2h-.2c-.1 0-.1 0-.2.1l-3.4 1.5.3-3.7v-.2c0-.2-.1-.4-.2-.5-.1-.1-.3-.1-.7-.1h-1.1c-.3 0-.5 0-.7.1-.1.1-.2.2-.2.5l.3 3.9-3.4-1.5c-.1 0-.1 0-.2-.1-.2 0-.4-.1-.6.2-.1.1-.1.2-.2.5l-.4 1.1s0 .1-.1.2c-.1.2-.1.2-.1.3 0 .1 0 .3.2.4.1.1.3.1.4.2l3.6.8-2.4 2.8c-.1.1-.2.2-.2.3-.1.1-.1.2-.1.3 0 .1.1.3.2.4l.3.3.9.7c.1.1.2.2.3.2.3.1.4.1.6 0l.3-.3 1.9-3.2 1.9 3.2c.1.1.1.2.2.3.1.1.2.1.3.1.1 0 .2 0 .3-.1.1 0 .2-.1.3-.2l1-.7.3-.3c.1-.1.2-.2.2-.3 0-.1 0-.2-.1-.3 0-.1-.1-.2-.2-.2l-2.4-2.8 3.6-.8c.2 0 .3-.1.4-.2.2-.1.2-.3.2-.4v-.2c.2-.3.1-.4.1-.5zM179.3 254.2c0-.1 0-.2-.1-.3l-.4-1.1c-.1-.2-.1-.4-.2-.5-.1-.1-.2-.2-.4-.2h-.2c-.1 0-.1 0-.2.1l-3.4 1.5.3-3.7v-.2c0-.2-.1-.4-.2-.5-.1-.1-.3-.1-.7-.1h-1.1c-.3 0-.5 0-.7.1-.1.1-.2.2-.2.5l.3 3.9-3.4-1.5c-.1 0-.1 0-.2-.1-.2 0-.4-.1-.6.2-.1.1-.1.3-.2.5l-.4 1.1s0 .1-.1.2c-.1.2-.1.2-.1.3 0 .1 0 .3.2.4.1.1.3.1.4.2l3.6.8-2.4 2.8c-.1.1-.2.2-.2.3-.1.1-.1.2-.1.3 0 .1.1.3.2.4l.3.3.9.7c.1.1.2.2.3.2.3.1.4.1.6 0l.3-.3 1.9-3.2 1.9 3.2c.1.1.1.2.2.3.1.1.2.1.3.1.1 0 .2 0 .3-.1.1 0 .2-.1.3-.2l1-.7.3-.3c.1-.1.2-.2.2-.3 0-.1 0-.2-.1-.3 0-.1-.1-.2-.2-.3l-2.4-2.8 3.6-.8c.2 0 .3-.1.4-.2.2-.1.2-.3.2-.4.2-.1.2-.2.2-.3zM227 188.4c-5.4 0-9.9-4.4-9.9-9.9 0-5.4 4.4-9.9 9.9-9.9 5.4 0 9.9 4.4 9.9 9.9s-4.5 9.9-9.9 9.9zm0-14.6c-2.6 0-4.7 2.1-4.7 4.7s2.1 4.7 4.7 4.7 4.7-2.1 4.7-4.7-2.1-4.7-4.7-4.7zM208 227.4c-5.4 0-9.9-4.4-9.9-9.9 0-5.4 4.4-9.9 9.9-9.9 5.4 0 9.9 4.4 9.9 9.9s-4.5 9.9-9.9 9.9zm0-14.6c-2.6 0-4.7 2.1-4.7 4.7s2.1 4.7 4.7 4.7 4.7-2.1 4.7-4.7-2.1-4.7-4.7-4.7z" class="st2"/><circle cx="61" cy="181.5" r="9.9" class="st2"/><path d="M158.9 32.1c-.7 1.4-1.1 2.9-1.1 4.5 0 5.4 4.4 9.9 9.9 9.9 5.4 0 9.9-4.4 9.9-9.9s-4.4-9.9-9.9-9.9c-1.9 0-3.7.6-5.3 1.5-1.5 1.1-2.7 2.4-3.5 3.9zm13.5 4.5c0 2.6-2.1 4.7-4.7 4.7s-4.7-2.1-4.7-4.7 2.1-4.7 4.7-4.7 4.7 2.1 4.7 4.7zM214.7 210.3c4.2-7.3 7.8-14.7 10.6-22-1.8-.3-3.4-1.1-4.7-2.2-2.8 7.3-6.3 14.6-10.5 21.8 1.8.4 3.4 1.3 4.6 2.4z" class="st2"/><path d="M176.4 41.2c-.8 1.5-2 2.9-3.5 3.8 37.7 38.5 54.6 81.5 54.6 107.4 0 5.2-.6 10.7-1.8 16.4.4-.1.8-.1 1.3-.1 1.4 0 2.7.3 3.8.8 1.2-5.9 1.8-11.7 1.8-17.1.1-37.3-27.9-82.4-56.2-111.2zM142.5 18c-1.5 0-3.1.4-4.9 1-4.6-.5-35-3-48.2 11.2-.7.7-.9 1.7-.5 2.7.3.9 1.2 1.5 2.1 1.6 8.5.8 16.9 2.7 20 4.2-2.2 2.1-4.3 4.3-6.3 6.4C66 86.8 52.3 127.8 52.3 152.3c0 6.9 1 14.1 2.7 21.3 1.4-1 3-1.7 4.8-1.9-1.5-6.5-2.4-13-2.4-19.3 0-35.9 27.5-78.3 51.1-103.7 2.6-2.8 5.1-5.3 7.5-7.6.2-.2.4-.3.6-.6 12.4-11.9 21.8-17.4 25.9-17.4 3.3 0 9.3 3.3 16.4 9 .8-1.6 2-2.9 3.5-3.8-6.2-5-14.2-10.3-19.9-10.3zm-27.7 17.2c-2.9-2.2-8.7-3.9-17.1-5.1 8.9-5.6 22.5-6.5 31.2-6.4-4.6 3.1-9.4 7.1-14.1 11.5zM192.5 239.9c3.9-4 7.7-8.5 11.4-13.4-1.6-.7-3-1.9-4-3.3-4.7 6.2-9.6 11.8-14.6 16.5H99.6c-12.9-12.1-25.7-30.2-33.8-49.7-1.4.8-3.1 1.3-4.9 1.3h-.1c7.6 18.6 19.4 36.1 31.6 48.6-6.4.9-11.4 6.5-11.4 13.2v3.5c0 7.4 6 13.4 13.4 13.4h96.1c7.4 0 13.4-6 13.4-13.4v-3.5c.1-6.7-4.9-12.3-11.4-13.2zm6.3 16.7c0 4.6-3.7 8.3-8.3 8.3H94.4c-4.6 0-8.3-3.7-8.3-8.3v-3.5c0-4.6 3.7-8.3 8.3-8.3h96.1c4.6 0 8.3 3.7 8.3 8.3v3.5z" class="st2"/></g></g></switch></svg>