<svg xmlns="http://www.w3.org/2000/svg" xml:space="preserve" id="Layer_1" x="0" y="0" style="enable-background:new 0 0 288 288" version="1.1" viewBox="0 0 288 288"><style>.st4{fill:#fff}</style><switch><g><linearGradient id="SVGID_1_" x1="144.774" x2="144.774" y1="36.746" y2="240.667" gradientUnits="userSpaceOnUse"><stop offset="0" style="stop-color:#0064ff"/><stop offset="1" style="stop-color:#00386b;stop-opacity:0"/></linearGradient><path d="M144.8 157.6c-22.3 0-40.4 18.1-40.4 40.4 0 18.2 12 33.6 28.5 38.6.2 3.9 2.3 7.5 5.9 9.6 1.9 1.1 3.9 1.6 5.9 1.6 4.1 0 8.1-2.1 10.4-6 1-1.6 1.4-3.4 1.6-5.2 16.5-5.1 28.5-20.5 28.5-38.7 0-22.2-18.1-40.3-40.4-40.3zm-11.9 77.7v.2-.2zm.1-1.1v-.1.1zm.3-1.3c0-.1 0-.1 0 0 0-.1 0-.1 0 0z" style="fill:url(#SVGID_1_)"/><linearGradient id="SVGID_00000019666838084193203640000006427658517610978711_" x1="144.774" x2="144.774" y1="36.746" y2="240.667" gradientUnits="userSpaceOnUse"><stop offset="0" style="stop-color:#0064ff"/><stop offset="1" style="stop-color:#00386b;stop-opacity:0"/></linearGradient><path d="M156.8 102.8c-.2-4.2-2.5-8.1-6.4-10.4-6.1-3.5-13.9-1.4-17.5 4.7-1 1.8-1.6 3.7-1.7 5.6-27.1 2.8-52.3 14.6-71.9 34.1-3.4 3.3-5.2 7.7-5.2 12.5 0 4.7 1.8 9.2 5.1 12.5 6.9 6.9 18 7 25 .1 15.9-15.8 37.1-24.5 59.5-24.5 23.3 0 45.1 9.3 61.2 26.3 3.4 3.5 7.9 5.5 12.8 5.5 4.6 0 8.9-1.7 12.2-4.9 3.4-3.3 5.4-7.6 5.5-12.4.1-4.7-1.6-9.2-4.9-12.6-19.8-20.8-45.6-33.5-73.7-36.5zm0 1.3zm-.2 1.3zm-25.2-.1z" style="fill:url(#SVGID_00000019666838084193203640000006427658517610978711_)"/><linearGradient id="SVGID_00000078012999626217470970000012274460679143990439_" x1="144" x2="144" y1="36.746" y2="240.667" gradientUnits="userSpaceOnUse"><stop offset="0" style="stop-color:#0064ff"/><stop offset="1" style="stop-color:#00386b;stop-opacity:0"/></linearGradient><path d="M265.8 97.2c-15.2-17.9-34.2-31.9-55.5-41.4 1.7-5.2-.4-11.2-5.4-14-5.7-3.3-13-1.3-16.3 4.4-.3.5-.5 1.1-.8 1.6-14.5-4.1-29.8-6.2-45.5-6.2C96.2 41.5 52.5 60.3 22.6 93c-6.6 7.2-6.1 18.4 1.1 24.9 7.2 6.6 18.4 6.1 24.9-1.1 5.5-6 11.7-11.4 18.3-16.2.6.5 1.2 1 1.9 1.4 1.8 1.1 3.9 1.6 5.9 1.6 1 0 2.1-.1 3.1-.4 3.1-.8 5.7-2.8 7.2-5.6 1.5-2.6 1.9-5.6 1.3-8.5 17.1-8 36.2-12.4 55.9-12.4 38 0 73.2 15.7 96.5 43.2 3.4 4 8.3 6.2 13.5 6.2 4.2 0 8.2-1.5 11.4-4.2 7.6-6.1 8.5-17.3 2.2-24.7zm-55.9-40.3zm-.6 1.1c-.2.4-.5.8-.8 1.2.3-.4.6-.8.8-1.2zm-22.2-6.6v.1-.1zm.4-2.5zm-.3 1.3zM86 87.5c.1.4.3.7.4 1.1-.1-.4-.3-.7-.4-1.1zm-.4-1s0 .1.1.1c-.1 0-.1-.1-.1-.1zM65.2 98.8s0-.1 0 0c0-.1 0 0 0 0z" style="fill:url(#SVGID_00000078012999626217470970000012274460679143990439_)"/><g style="opacity:.9"><path d="M150.6 219.3h-12.3c-1.4 0-2.5-1.1-2.5-2.5v-13c-3.8-2.8-6.2-7.3-6.2-12 0-8.2 6.7-14.9 14.9-14.9s14.9 6.7 14.9 14.9c0 4.8-2.3 9.3-6.2 12v13c-.1 1.3-1.2 2.5-2.6 2.5zm-9.8-5.1h7.2v-11.9c0-.9.5-1.7 1.3-2.2 3-1.7 4.9-5 4.9-8.4 0-5.4-4.4-9.8-9.8-9.8s-9.8 4.4-9.8 9.8c0 3.5 1.9 6.7 4.9 8.4.8.5 1.3 1.3 1.3 2.2v11.9zM198.9 64c-2 0-4.1-.5-5.9-1.6-5.7-3.3-7.7-10.6-4.4-16.3 3.3-5.7 10.6-7.7 16.3-4.4 5.7 3.3 7.7 10.6 4.4 16.3-2.2 3.9-6.2 6-10.4 6zm.1-18.8c-2.4 0-4.7 1.2-5.9 3.4-.9 1.6-1.2 3.4-.7 5.2.5 1.8 1.6 3.2 3.2 4.2 3.3 1.9 7.5.8 9.3-2.5 1.9-3.3.8-7.5-2.5-9.3-1.1-.7-2.3-1-3.4-1zM74.8 103.6c-2.1 0-4.1-.5-5.9-1.6-5.7-3.3-7.7-10.6-4.4-16.3 1.6-2.8 4.2-4.7 7.2-5.6 3.1-.8 6.3-.4 9.1 1.2s4.7 4.2 5.6 7.2c.8 3.1.4 6.3-1.2 9.1s-4.2 4.7-7.2 5.6c-1.1.3-2.1.4-3.2.4zm.1-18.7c-.6 0-1.2.1-1.8.2-1.8.5-3.2 1.6-4.2 3.2-1.9 3.3-.8 7.5 2.5 9.3 1.6.9 3.4 1.2 5.2.7 1.8-.5 3.2-1.6 4.2-3.2.9-1.6 1.2-3.4.7-5.2-.5-1.8-1.6-3.2-3.2-4.2-1.1-.5-2.3-.8-3.4-.8zM144.8 247.9c-2 0-4.1-.5-5.9-1.6-5.7-3.3-7.7-10.6-4.4-16.3 3.3-5.7 10.6-7.7 16.3-4.4 5.7 3.3 7.7 10.6 4.4 16.3-2.3 3.8-6.3 6-10.4 6zm0-18.8c-2.4 0-4.7 1.2-5.9 3.4-1.9 3.3-.8 7.5 2.5 9.3 3.3 1.9 7.5.8 9.3-2.5 1.9-3.3.8-7.5-2.5-9.3-1.1-.6-2.3-.9-3.4-.9zM150.4 92.5c-6.1-3.5-13.9-1.4-17.5 4.7-3.5 6.1-1.4 13.9 4.7 17.5 2 1.2 4.2 1.7 6.4 1.7 4.4 0 8.7-2.3 11.1-6.4 3.5-6.2 1.4-14-4.7-17.5z" class="st4"/><path d="M144.8 162.7c19.5 0 35.3 15.9 35.3 35.3 0-1.4 1.1-2.5 2.5-2.5s2.5 1.1 2.5 2.5c0-22.3-18.1-40.4-40.4-40.4-22.3 0-40.4 18.1-40.4 40.4 0 18.2 12 33.6 28.5 38.6-.1-1.7.2-3.5.8-5.1-14.1-4.7-24.3-17.9-24.3-33.5.1-19.4 16-35.3 35.5-35.3z" class="st4"/><path d="M182.7 195.5c-1.4 0-2.5 1.1-2.5 2.5 0 15.6-10.2 28.9-24.3 33.5.6 1.6.9 3.4.8 5.1 16.5-5.1 28.5-20.5 28.5-38.6 0-1.4-1.1-2.5-2.5-2.5zM230.5 139.3c-19.8-20.8-45.7-33.5-73.8-36.5.1 1.7-.1 3.4-.7 5 27 2.8 51.8 15 70.8 35 2.3 2.4 3.5 5.6 3.5 9-.1 3.4-1.5 6.5-3.9 8.8-1 1-1.1 2.6-.1 3.6.5.5 1.2.8 1.8.8.6 0 1.3-.2 1.8-.7 3.4-3.3 5.4-7.6 5.5-12.4.1-4.7-1.6-9.2-4.9-12.6z" class="st4"/><path d="M226.3 164.2c-1-1-.9-2.6.1-3.6-2.3 2.2-5.4 3.5-8.7 3.5-3.5 0-6.7-1.4-9.1-3.9-17.1-17.9-40.2-27.8-64.9-27.8-23.8 0-46.2 9.2-63.1 26-4.9 4.9-12.9 4.8-17.8-.1-2.4-2.4-3.7-5.5-3.6-8.9 0-3.4 1.3-6.5 3.7-8.9-.5.5-1.1.7-1.8.7s-1.3-.3-1.8-.8c-1-1-1-2.6 0-3.6-3.4 3.3-5.2 7.7-5.2 12.5 0 4.7 1.8 9.2 5.1 12.5 6.9 6.9 18 7 25 .1 15.9-15.8 37.1-24.5 59.5-24.5 23.3 0 45.1 9.3 61.2 26.3 3.4 3.5 7.9 5.5 12.8 5.5 4.6 0 8.9-1.7 12.2-4.9-.5.5-1.1.7-1.8.7-.6 0-1.3-.3-1.8-.8z" class="st4"/><path d="M131.3 102.8c-27.1 2.8-52.3 14.6-71.9 34.1-1 1-1 2.6 0 3.6.5.5 1.2.8 1.8.8.6 0 1.3-.2 1.8-.7 18.8-18.7 43-30 69-32.7-.6-1.7-.8-3.4-.7-5.1zM265.8 97.2c-15.2-17.9-34.2-31.9-55.5-41.4-.3.8-.6 1.5-1 2.3-.5.8-1 1.5-1.6 2.1 20.9 9.2 39.4 22.8 54.3 40.3 4.5 5.3 3.8 13.2-1.5 17.7-2.3 1.9-5.2 3-8.1 3-3.7 0-7.2-1.6-9.6-4.4-24.3-28.6-60.8-45-100.4-45-20.5 0-40.3 4.5-58 12.8.9 1.2 1.6 2.6 2 4.1.1.2.1.4.1.6 17.1-8 36.2-12.4 55.9-12.4 38 0 73.2 15.7 96.5 43.2 3.4 4 8.3 6.2 13.5 6.2 4.2 0 8.2-1.5 11.4-4.2 7.4-6.3 8.3-17.5 2-24.9z" class="st4"/><path d="M64 96.5c-6.9 5-13.3 10.6-19 16.9-4.7 5.1-12.6 5.5-17.7.8s-5.5-12.6-.8-17.7c29-31.7 71.3-49.9 116-49.9 15.4 0 30.4 2.1 44.6 6.2-.1-1.7.2-3.4.8-5.1-14.5-4.1-29.8-6.2-45.5-6.2-46.2 0-89.9 18.8-119.8 51.5-6.6 7.2-6.1 18.4 1.1 24.9 7.2 6.6 18.4 6.1 24.9-1.1 5.5-6 11.7-11.4 18.3-16.2-1.3-1.1-2.3-2.5-2.9-4.1z" class="st4"/></g></g></switch></svg>