<svg xmlns="http://www.w3.org/2000/svg" xml:space="preserve" id="Layer_1" x="0" y="0" style="enable-background:new 0 0 288 288" version="1.1" viewBox="0 0 288 288"><style>.st8{fill:#fff}</style><switch><g><linearGradient id="SVGID_1_" x1="160.304" x2="160.304" y1="151.834" y2="151.834" gradientUnits="userSpaceOnUse"><stop offset="0" style="stop-color:#00e497"/><stop offset="1" style="stop-color:#008680;stop-opacity:0"/></linearGradient><linearGradient id="SVGID_00000142165036300988642870000012916141470022845617_" x1="127.663" x2="127.663" y1="151.834" y2="151.834" gradientUnits="userSpaceOnUse"><stop offset="0" style="stop-color:#00e497"/><stop offset="1" style="stop-color:#008680;stop-opacity:0"/></linearGradient><linearGradient id="SVGID_00000067928288411397034410000018172267014671373459_" x1="227.55" x2="227.55" y1="40.896" y2="289.288" gradientUnits="userSpaceOnUse"><stop offset="0" style="stop-color:#00e497"/><stop offset="1" style="stop-color:#008680;stop-opacity:0"/></linearGradient><circle cx="227.5" cy="229.7" r="10.8" style="fill:url(#SVGID_00000067928288411397034410000018172267014671373459_)"/><linearGradient id="SVGID_00000164495992113802031200000013029237354203497138_" x1="226.395" x2="226.395" y1="40.896" y2="289.288" gradientUnits="userSpaceOnUse"><stop offset="0" style="stop-color:#00e497"/><stop offset="1" style="stop-color:#008680;stop-opacity:0"/></linearGradient><path d="M226.4 66.4c-6 0-10.8-4.9-10.8-10.8s4.9-10.8 10.8-10.8c6 0 10.8 4.9 10.8 10.8s-4.8 10.8-10.8 10.8z" style="fill:url(#SVGID_00000164495992113802031200000013029237354203497138_)"/><linearGradient id="SVGID_00000113313128931232641400000002115945189393947786_" x1="61.975" x2="61.975" y1="40.896" y2="289.288" gradientUnits="userSpaceOnUse"><stop offset="0" style="stop-color:#00e497"/><stop offset="1" style="stop-color:#008680;stop-opacity:0"/></linearGradient><circle cx="62" cy="55.6" r="10.8" style="fill:url(#SVGID_00000113313128931232641400000002115945189393947786_)"/><linearGradient id="SVGID_00000162310115757942950330000001268147782072958103_" x1="60.45" x2="60.45" y1="40.896" y2="289.288" gradientUnits="userSpaceOnUse"><stop offset="0" style="stop-color:#00e497"/><stop offset="1" style="stop-color:#008680;stop-opacity:0"/></linearGradient><path d="M60.5 241.7c-6 0-10.8-4.9-10.8-10.8 0-6 4.9-10.8 10.8-10.8 6 0 10.8 4.9 10.8 10.8s-4.9 10.8-10.8 10.8z" style="fill:url(#SVGID_00000162310115757942950330000001268147782072958103_)"/><linearGradient id="SVGID_00000109731926135584334570000016132442569346555288_" x1="144.095" x2="144.095" y1="40.896" y2="289.288" gradientUnits="userSpaceOnUse"><stop offset="0" style="stop-color:#00e497"/><stop offset="1" style="stop-color:#008680;stop-opacity:0"/></linearGradient><path d="m229.2 179.9-32-32c-.5-.5-1.1-.8-1.8-.8h-29.6c.8-2.1 1.3-4.2 1.4-6.4h27c.7 0 1.3-.3 1.8-.8l32-32c.5-.5.8-1.1.8-1.8V66.2c-.8.2-1.6.3-2.4.3-.9 0-1.8-.1-2.7-.3v39.1l-30.5 30.5h-26.1c-.1-1-.3-2-.6-3l28.9-28.9c.5-.5.8-1.1.8-1.8V54.9c0-.7-.3-1.3-.8-1.8l-28.8-28.8c-1-1-2.6-1-3.6 0s-1 2.6 0 3.6l28 28v45l-26.6 26.6c-2.2-3.9-5.4-7.1-9.4-9.2l2.6-4.2c.4-.6.3-1.4-.1-1.9l-5.7-7.5c-.6-.8-1.6-.9-2.4-.3-.8.6-.9 1.6-.3 2.4l5 6.5-2.3 3.6c-2.5-.9-5.1-1.4-7.8-1.4s-5.2.5-7.6 1.3l-2.3-3.5 5-6.5c.6-.8.4-1.8-.3-2.4-.8-.6-1.8-.4-2.4.3l-5.7 7.5c-.4.6-.5 1.4-.1 2l2.6 4.1c-4 2.1-7.3 5.3-9.5 9.2L97.2 101V56l28-28c1-1 1-2.6 0-3.6s-2.6-1-3.6 0L92.8 53.1c-.5.5-.8 1.1-.8 1.8V102c0 .7.3 1.3.8 1.8l28.7 28.7c-.3 1-.5 2.1-.7 3.1H95l-30.5-30.5V66.2c-.8.2-1.6.3-2.5.3-.9 0-1.8-.1-2.6-.3V106.3c0 .7.3 1.3.8 1.8l32 32c.5.5 1.1.8 1.8.8h26.8c.2 2.2.7 4.4 1.4 6.4H92.8c-.7 0-1.3.3-1.8.8l-32 32c-.5.5-.8 1.1-.8 1.8v38.5c.7-.2 1.5-.2 2.2-.2 1 0 2 .1 2.9.4V183l30.5-30.5h28.4c-3.9 3-7.1 6.7-9.5 10.9-.1.1-.2.1-.2.2l-20.8 20.8c-.5.5-.8 1.1-.8 1.8v47.1c0 .7.3 1.3.8 1.8l28.8 28.8c.5.5 1.2.8 1.8.8.7 0 1.3-.3 1.8-.8 1-1 1-2.6 0-3.6l-28-28v-45l12.5-12.5c-.4 2.1-.6 4.3-.6 6.4 0 19.9 16.2 36 36 36 19.9 0 36-16.2 36-36 0-2.3-.2-4.5-.6-6.7l12.8 12.8v45l-28 28c-1 1-1 2.6 0 3.6.5.5 1.2.8 1.8.8s1.3-.3 1.8-.8l28.8-28.8c.5-.5.8-1.1.8-1.8V186c0-.7-.3-1.3-.8-1.8l-20.8-20.8c-.2-.2-.4-.3-.6-.4-2.4-4.1-5.5-7.7-9.4-10.7h28.6l30.5 30.5v36.4c.9-.2 1.8-.4 2.7-.4.8 0 1.6.1 2.4.3v-37.4c0-.6-.3-1.3-.8-1.8z" style="fill:url(#SVGID_00000109731926135584334570000016132442569346555288_)"/><g style="opacity:.9"><path d="m145.3 189.2 5.5-7.1c.4-.5.5-1.2.2-1.8-.3-.6-.9-1-1.5-1h-11c-.7 0-1.3.4-1.5 1-.3.6-.2 1.3.2 1.8l5.5 7.1-5.5 7.1c-.4.5-.5 1.2-.2 1.8.3.6.9 1 1.5 1h11c.7 0 1.3-.4 1.5-1 .3-.6.2-1.3-.2-1.8l-5.5-7.1zm.7-6.4-2 2.6-2-2.6h4zm-4 12.8 2-2.6 2 2.6h-4z" class="st8"/><circle cx="227.5" cy="229.7" r="10.8" class="st8" transform="rotate(-14.471 227.585 229.773)"/><path d="M226.4 66.4c-6 0-10.8-4.9-10.8-10.8s4.9-10.8 10.8-10.8c6 0 10.8 4.9 10.8 10.8s-4.8 10.8-10.8 10.8zm0-16.5c-3.1 0-5.7 2.6-5.7 5.7s2.6 5.7 5.7 5.7 5.7-2.6 5.7-5.7c0-3.2-2.6-5.7-5.7-5.7z" class="st8"/><circle cx="62" cy="55.6" r="10.8" class="st8"/><path d="M60.5 241.7c-6 0-10.8-4.9-10.8-10.8 0-6 4.9-10.8 10.8-10.8 6 0 10.8 4.9 10.8 10.8s-4.9 10.8-10.8 10.8zm0-16.6c-3.1 0-5.7 2.6-5.7 5.7s2.6 5.7 5.7 5.7 5.7-2.6 5.7-5.7c-.1-3.1-2.6-5.7-5.7-5.7z" class="st8"/><path d="m229.2 179.9-32-32c-.5-.5-1.1-.8-1.8-.8h-29.6c.8-2.1 1.3-4.2 1.4-6.4h27c.7 0 1.3-.3 1.8-.8l32-32c.5-.5.8-1.1.8-1.8V66.2c-.8.2-1.6.3-2.4.3-.9 0-1.8-.1-2.7-.3v39.1l-30.5 30.5h-26.1c-.1-1-.3-2-.6-3l28.9-28.9c.5-.5.8-1.1.8-1.8V54.9c0-.7-.3-1.3-.8-1.8l-28.8-28.8c-1-1-2.6-1-3.6 0s-1 2.6 0 3.6l28 28v45l-26.6 26.6c-2.2-3.9-5.4-7.1-9.4-9.2l2.6-4.2c.4-.6.3-1.4-.1-1.9l-5.7-7.5c-.6-.8-1.6-.9-2.4-.3-.8.6-.9 1.6-.3 2.4l5 6.5-2.3 3.6c-2.5-.9-5.1-1.4-7.8-1.4s-5.2.5-7.6 1.3l-2.3-3.5 5-6.5c.6-.8.4-1.8-.3-2.4-.8-.6-1.8-.4-2.4.3l-5.7 7.5c-.4.6-.5 1.4-.1 2l2.6 4.1c-4 2.1-7.3 5.3-9.5 9.2L97.2 101V56l28-28c1-1 1-2.6 0-3.6s-2.6-1-3.6 0L92.8 53.1c-.5.5-.8 1.1-.8 1.8V102c0 .7.3 1.3.8 1.8l28.7 28.7c-.3 1-.5 2.1-.7 3.1H95l-30.5-30.5V66.2c-.8.2-1.6.3-2.5.3-.9 0-1.8-.1-2.6-.3V106.3c0 .7.3 1.3.8 1.8l32 32c.5.5 1.1.8 1.8.8h26.8c.2 2.2.7 4.4 1.4 6.4H92.8c-.7 0-1.3.3-1.8.8l-32 32c-.5.5-.8 1.1-.8 1.8v38.5c.7-.2 1.5-.2 2.2-.2 1 0 2 .1 2.9.4V183l30.5-30.5h28.4c-3.9 3-7.1 6.7-9.5 10.9-.1.1-.2.1-.2.2l-20.8 20.8c-.5.5-.8 1.1-.8 1.8v47.1c0 .7.3 1.3.8 1.8l28.8 28.8c.5.5 1.2.8 1.8.8.7 0 1.3-.3 1.8-.8 1-1 1-2.6 0-3.6l-28-28v-45l12.5-12.5c-.4 2.1-.6 4.3-.6 6.4 0 19.9 16.2 36 36 36 19.9 0 36-16.2 36-36 0-2.3-.2-4.5-.6-6.7l12.8 12.8v45l-28 28c-1 1-1 2.6 0 3.6.5.5 1.2.8 1.8.8s1.3-.3 1.8-.8l28.8-28.8c.5-.5.8-1.1.8-1.8V186c0-.7-.3-1.3-.8-1.8l-20.8-20.8c-.2-.2-.4-.3-.6-.4-2.4-4.1-5.5-7.7-9.4-10.7h28.6l30.5 30.5v36.4c.9-.2 1.8-.4 2.7-.4.8 0 1.6.1 2.4.3v-37.4c0-.6-.3-1.3-.8-1.8zm-54.3 1.1c0 17-13.8 30.9-30.9 30.9-17 0-30.9-13.8-30.9-30.9 0-11.2 6.1-21.5 15.8-26.9.7-.4 1.1-1 1.3-1.7.1-.7 0-1.5-.5-2.1-2.6-3.2-3.9-7.1-3.9-11.3.1-.2.1-.5.1-.8 0-.2 0-.4-.1-.6.7-9.5 8.6-17 18.2-17 10.1 0 18.3 8.2 18.3 18.3 0 4.1-1.4 8.1-3.9 11.3-.5.6-.7 1.4-.5 2.1.1.7.6 1.4 1.3 1.7 9.6 5.5 15.7 15.9 15.7 27z" class="st8"/></g></g></switch></svg>